<svg width="29" height="30" viewBox="0 0 29 30" fill="none" xmlns="http://www.w3.org/2000/svg">
<path d="M10.1163 24.7103L10.0586 24.6987H9.99967H9.33301C6.57482 24.6987 4.51456 24.317 3.13185 23.1492C1.77261 22.0012 0.92788 19.9668 0.92788 16.2936V9.62695C0.92788 6.77996 1.67715 4.70409 3.04365 3.33759C4.41014 1.9711 6.48601 1.22182 9.33301 1.22182H19.9997C22.8467 1.22182 24.9225 1.9711 26.289 3.33759C27.6555 4.70409 28.4048 6.77996 28.4048 9.62695V16.2936C28.4048 19.1406 27.6555 21.2165 26.289 22.583C24.9225 23.9495 22.8467 24.6987 19.9997 24.6987H19.333C19.016 24.6987 18.7655 24.8588 18.6094 25.0461L18.5996 25.0578L18.5904 25.07L16.5914 27.7355C16.5913 27.7356 16.5912 27.7358 16.591 27.7359C16.0744 28.4208 15.3748 28.7787 14.6663 28.7787C13.958 28.7787 13.2586 28.4209 12.742 27.7363C12.7417 27.736 12.7415 27.7357 12.7413 27.7355L10.7422 25.07C10.6676 24.9705 10.5779 24.9102 10.5393 24.8854C10.4889 24.8529 10.4381 24.8266 10.3955 24.8067C10.3199 24.7712 10.2149 24.73 10.1163 24.7103ZM13.3904 27.2506L13.3929 27.2538C13.7077 27.6675 14.1513 27.9485 14.6663 27.9485C15.1814 27.9485 15.625 27.6675 15.9398 27.2538L15.9422 27.2505L17.9422 24.5839C18.2699 24.147 18.7869 23.8885 19.333 23.8885H19.9997C22.4676 23.8885 24.401 23.3136 25.7103 22.0043C27.0196 20.695 27.5945 18.7616 27.5945 16.2936V9.62695C27.5945 7.15899 27.0196 5.22562 25.7103 3.91632C24.401 2.60701 22.4676 2.03208 19.9997 2.03208H9.33301C6.86505 2.03208 4.93168 2.60701 3.62237 3.91632C2.31306 5.22562 1.73814 7.15899 1.73814 9.62695V16.2936C1.73814 19.3333 2.24962 21.3214 3.59017 22.5003C4.91002 23.661 6.8792 23.8885 9.33301 23.8885H9.99967C10.4912 23.8885 11.089 24.1859 11.3911 24.5848C11.3914 24.5851 11.3916 24.5854 11.3918 24.5857L13.3904 27.2506ZM21.333 10.0321H7.99967C7.78155 10.0321 7.59455 9.84508 7.59455 9.62695C7.59455 9.40883 7.78155 9.22182 7.99967 9.22182H21.333C21.5511 9.22182 21.7381 9.40882 21.7381 9.62695C21.7381 9.84508 21.5511 10.0321 21.333 10.0321ZM15.9997 16.6987H7.99967C7.78155 16.6987 7.59455 16.5117 7.59455 16.2936C7.59455 16.0755 7.78155 15.8885 7.99967 15.8885H15.9997C16.2178 15.8885 16.4048 16.0755 16.4048 16.2936C16.4048 16.5117 16.2178 16.6987 15.9997 16.6987Z" fill="black" stroke="white" stroke-width="1.18974"/>
</svg>
