<svg width="24" height="24" viewBox="0 0 24 24" fill="none" xmlns="http://www.w3.org/2000/svg">
<g clip-path="url(#clip0_12_8528)">
<mask id="path-1-inside-1_12_8528" fill="white">
<path d="M11.8695 6.9995C11.2301 6.9995 10.5969 7.12544 10.0062 7.37013C9.41546 7.61482 8.8787 7.97347 8.42657 8.4256C7.97445 8.87773 7.6158 9.41448 7.37111 10.0052C7.12642 10.5959 7.00048 11.2291 7.00048 11.8685C7.00048 12.5079 7.12642 13.1411 7.37111 13.7318C7.6158 14.3225 7.97445 14.8593 8.42657 15.3114C8.8787 15.7635 9.41546 16.1222 10.0062 16.3669C10.5969 16.6116 11.2301 16.7375 11.8695 16.7375C13.1608 16.7375 14.3993 16.2245 15.3124 15.3114C16.2255 14.3983 16.7385 13.1598 16.7385 11.8685C16.7385 10.5772 16.2255 9.33871 15.3124 8.4256C14.3993 7.51248 13.1608 6.9995 11.8695 6.9995ZM8.50048 11.8685C8.50048 10.975 8.85542 10.1181 9.48723 9.48626C10.119 8.85445 10.976 8.4995 11.8695 8.4995C12.763 8.4995 13.6199 8.85445 14.2517 9.48626C14.8835 10.1181 15.2385 10.975 15.2385 11.8685C15.2385 12.762 14.8835 13.6189 14.2517 14.2507C13.6199 14.8826 12.763 15.2375 11.8695 15.2375C10.976 15.2375 10.119 14.8826 9.48723 14.2507C8.85542 13.6189 8.50048 12.762 8.50048 11.8685Z"/>
<path d="M14.6942 2.01375C13.9037 -0.67125 10.0967 -0.67125 9.30623 2.01375L9.16523 2.49225C9.11002 2.67968 9.01357 2.85238 8.88295 2.99769C8.75233 3.143 8.59085 3.25724 8.41034 3.33203C8.22983 3.40682 8.03487 3.44027 7.83976 3.42993C7.64464 3.41958 7.45431 3.36571 7.28273 3.27225L6.84473 3.03225C4.38473 1.69425 1.69523 4.38525 3.03473 6.84375L3.27323 7.28175C3.36668 7.45334 3.42056 7.64367 3.4309 7.83878C3.44125 8.0339 3.4078 8.22885 3.333 8.40936C3.25821 8.58987 3.14397 8.75135 2.99866 8.88198C2.85335 9.0126 2.68065 9.10904 2.49323 9.16425L2.01473 9.30525C-0.670273 10.0958 -0.670273 13.9027 2.01473 14.6932L2.49323 14.8343C2.68065 14.8895 2.85335 14.9859 2.99866 15.1165C3.14397 15.2471 3.25821 15.4086 3.333 15.5891C3.4078 15.7696 3.44125 15.9646 3.4309 16.1597C3.42056 16.3548 3.36668 16.5452 3.27323 16.7168L3.03323 17.1548C1.69523 19.6148 4.38473 22.3058 6.84473 20.9648L7.28273 20.7262C7.45431 20.6328 7.64464 20.5789 7.83976 20.5686C8.03487 20.5582 8.22983 20.5917 8.41034 20.6665C8.59085 20.7413 8.75233 20.8555 8.88295 21.0008C9.01357 21.1461 9.11002 21.3188 9.16523 21.5063L9.30623 21.9847C10.0967 24.6697 13.9037 24.6697 14.6942 21.9847L14.8352 21.5063C14.8904 21.3188 14.9869 21.1461 15.1175 21.0008C15.2481 20.8555 15.4096 20.7413 15.5901 20.6665C15.7706 20.5917 15.9656 20.5582 16.1607 20.5686C16.3558 20.5789 16.5461 20.6328 16.7177 20.7262L17.1557 20.9662C19.6157 22.3057 22.3067 19.6133 20.9657 17.1548L20.7272 16.7168C20.6338 16.5452 20.5799 16.3548 20.5695 16.1597C20.5592 15.9646 20.5927 15.7696 20.6674 15.5891C20.7422 15.4086 20.8565 15.2471 21.0018 15.1165C21.1471 14.9859 21.3198 14.8895 21.5072 14.8343L21.9857 14.6932C24.6707 13.9027 24.6707 10.0958 21.9857 9.30525L21.5072 9.16425C21.3198 9.10904 21.1471 9.0126 21.0018 8.88198C20.8565 8.75135 20.7422 8.58987 20.6674 8.40936C20.5927 8.22885 20.5592 8.0339 20.5695 7.83878C20.5799 7.64367 20.6338 7.45334 20.7272 7.28175L20.9672 6.84375C22.3067 4.38375 19.6142 1.69425 17.1557 3.03375L16.7177 3.27225C16.5461 3.36571 16.3558 3.41958 16.1607 3.42993C15.9656 3.44027 15.7706 3.40682 15.5901 3.33203C15.4096 3.25724 15.2481 3.143 15.1175 2.99769C14.9869 2.85238 14.8904 2.67968 14.8352 2.49225L14.6942 2.01375ZM10.7447 2.43825C11.1137 1.18575 12.8867 1.18575 13.2557 2.43825L13.3967 2.91675C13.5153 3.31888 13.7223 3.68938 14.0026 4.0011C14.283 4.31282 14.6295 4.55784 15.0168 4.71822C15.4042 4.87859 15.8225 4.95025 16.2411 4.92793C16.6598 4.90562 17.0681 4.78989 17.4362 4.58925L17.8727 4.34925C19.0187 3.72675 20.2727 4.97925 19.6487 6.12675L19.4102 6.56475C19.2099 6.93289 19.0944 7.34119 19.0724 7.75973C19.0503 8.17828 19.1221 8.59645 19.2826 8.98363C19.4432 9.3708 19.6883 9.71715 20 9.99731C20.3117 10.2775 20.6822 10.4843 21.0842 10.6027L21.5612 10.7437C22.8137 11.1127 22.8137 12.8858 21.5612 13.2548L21.0827 13.3958C20.6806 13.5143 20.3101 13.7213 19.9984 14.0016C19.6867 14.282 19.4416 14.6285 19.2813 15.0159C19.1209 15.4032 19.0492 15.8215 19.0715 16.2402C19.0939 16.6588 19.2096 17.0671 19.4102 17.4352L19.6502 17.8717C20.2727 19.0177 19.0202 20.2718 17.8727 19.6478L17.4362 19.4093C17.068 19.2086 16.6596 19.093 16.2409 19.0707C15.8221 19.0485 15.4038 19.1203 15.0164 19.2808C14.629 19.4414 14.2825 19.6866 14.0022 19.9984C13.722 20.3103 13.5151 20.681 13.3967 21.0833L13.2557 21.5602C12.8867 22.8127 11.1137 22.8127 10.7447 21.5602L10.6037 21.0818C10.4851 20.6798 10.2782 20.3095 9.99792 19.998C9.71769 19.6864 9.37131 19.4415 8.98416 19.2811C8.59701 19.1208 8.17889 19.0491 7.76043 19.0712C7.34197 19.0934 6.93377 19.2089 6.56573 19.4093L6.12773 19.6493C4.98173 20.2718 3.72773 19.0192 4.35173 17.8717L4.59023 17.4352C4.79115 17.0671 4.9071 16.6586 4.92957 16.2398C4.95203 15.821 4.88044 15.4025 4.72004 15.0149C4.55965 14.6274 4.31452 14.2807 4.00264 14.0002C3.69077 13.7198 3.32006 13.5127 2.91773 13.3943L2.43923 13.2533C1.18673 12.8843 1.18673 11.1113 2.43923 10.7423L2.91773 10.6012C3.31944 10.4826 3.68954 10.2757 4.00094 9.99553C4.31234 9.7154 4.55717 9.36919 4.71751 8.98223C4.87784 8.59527 4.94962 8.17736 4.9276 7.75908C4.90558 7.3408 4.79031 6.93273 4.59023 6.56475L4.35023 6.12675C3.72773 4.98075 4.98023 3.72675 6.12773 4.35075L6.56573 4.58925C6.93377 4.78961 7.34197 4.90511 7.76043 4.92728C8.17889 4.94945 8.59701 4.87773 8.98416 4.71737C9.37131 4.55702 9.71769 4.31209 9.99792 4.00053C10.2782 3.68897 10.4851 3.31867 10.6037 2.91675L10.7447 2.43825Z"/>
</mask>
<path d="M11.8695 6.9995C11.2301 6.9995 10.5969 7.12544 10.0062 7.37013C9.41546 7.61482 8.8787 7.97347 8.42657 8.4256C7.97445 8.87773 7.6158 9.41448 7.37111 10.0052C7.12642 10.5959 7.00048 11.2291 7.00048 11.8685C7.00048 12.5079 7.12642 13.1411 7.37111 13.7318C7.6158 14.3225 7.97445 14.8593 8.42657 15.3114C8.8787 15.7635 9.41546 16.1222 10.0062 16.3669C10.5969 16.6116 11.2301 16.7375 11.8695 16.7375C13.1608 16.7375 14.3993 16.2245 15.3124 15.3114C16.2255 14.3983 16.7385 13.1598 16.7385 11.8685C16.7385 10.5772 16.2255 9.33871 15.3124 8.4256C14.3993 7.51248 13.1608 6.9995 11.8695 6.9995ZM8.50048 11.8685C8.50048 10.975 8.85542 10.1181 9.48723 9.48626C10.119 8.85445 10.976 8.4995 11.8695 8.4995C12.763 8.4995 13.6199 8.85445 14.2517 9.48626C14.8835 10.1181 15.2385 10.975 15.2385 11.8685C15.2385 12.762 14.8835 13.6189 14.2517 14.2507C13.6199 14.8826 12.763 15.2375 11.8695 15.2375C10.976 15.2375 10.119 14.8826 9.48723 14.2507C8.85542 13.6189 8.50048 12.762 8.50048 11.8685Z" fill="#1F1F1F"/>
<path d="M14.6942 2.01375C13.9037 -0.67125 10.0967 -0.67125 9.30623 2.01375L9.16523 2.49225C9.11002 2.67968 9.01357 2.85238 8.88295 2.99769C8.75233 3.143 8.59085 3.25724 8.41034 3.33203C8.22983 3.40682 8.03487 3.44027 7.83976 3.42993C7.64464 3.41958 7.45431 3.36571 7.28273 3.27225L6.84473 3.03225C4.38473 1.69425 1.69523 4.38525 3.03473 6.84375L3.27323 7.28175C3.36668 7.45334 3.42056 7.64367 3.4309 7.83878C3.44125 8.0339 3.4078 8.22885 3.333 8.40936C3.25821 8.58987 3.14397 8.75135 2.99866 8.88198C2.85335 9.0126 2.68065 9.10904 2.49323 9.16425L2.01473 9.30525C-0.670273 10.0958 -0.670273 13.9027 2.01473 14.6932L2.49323 14.8343C2.68065 14.8895 2.85335 14.9859 2.99866 15.1165C3.14397 15.2471 3.25821 15.4086 3.333 15.5891C3.4078 15.7696 3.44125 15.9646 3.4309 16.1597C3.42056 16.3548 3.36668 16.5452 3.27323 16.7168L3.03323 17.1548C1.69523 19.6148 4.38473 22.3058 6.84473 20.9648L7.28273 20.7262C7.45431 20.6328 7.64464 20.5789 7.83976 20.5686C8.03487 20.5582 8.22983 20.5917 8.41034 20.6665C8.59085 20.7413 8.75233 20.8555 8.88295 21.0008C9.01357 21.1461 9.11002 21.3188 9.16523 21.5063L9.30623 21.9847C10.0967 24.6697 13.9037 24.6697 14.6942 21.9847L14.8352 21.5063C14.8904 21.3188 14.9869 21.1461 15.1175 21.0008C15.2481 20.8555 15.4096 20.7413 15.5901 20.6665C15.7706 20.5917 15.9656 20.5582 16.1607 20.5686C16.3558 20.5789 16.5461 20.6328 16.7177 20.7262L17.1557 20.9662C19.6157 22.3057 22.3067 19.6133 20.9657 17.1548L20.7272 16.7168C20.6338 16.5452 20.5799 16.3548 20.5695 16.1597C20.5592 15.9646 20.5927 15.7696 20.6674 15.5891C20.7422 15.4086 20.8565 15.2471 21.0018 15.1165C21.1471 14.9859 21.3198 14.8895 21.5072 14.8343L21.9857 14.6932C24.6707 13.9027 24.6707 10.0958 21.9857 9.30525L21.5072 9.16425C21.3198 9.10904 21.1471 9.0126 21.0018 8.88198C20.8565 8.75135 20.7422 8.58987 20.6674 8.40936C20.5927 8.22885 20.5592 8.0339 20.5695 7.83878C20.5799 7.64367 20.6338 7.45334 20.7272 7.28175L20.9672 6.84375C22.3067 4.38375 19.6142 1.69425 17.1557 3.03375L16.7177 3.27225C16.5461 3.36571 16.3558 3.41958 16.1607 3.42993C15.9656 3.44027 15.7706 3.40682 15.5901 3.33203C15.4096 3.25724 15.2481 3.143 15.1175 2.99769C14.9869 2.85238 14.8904 2.67968 14.8352 2.49225L14.6942 2.01375ZM10.7447 2.43825C11.1137 1.18575 12.8867 1.18575 13.2557 2.43825L13.3967 2.91675C13.5153 3.31888 13.7223 3.68938 14.0026 4.0011C14.283 4.31282 14.6295 4.55784 15.0168 4.71822C15.4042 4.87859 15.8225 4.95025 16.2411 4.92793C16.6598 4.90562 17.0681 4.78989 17.4362 4.58925L17.8727 4.34925C19.0187 3.72675 20.2727 4.97925 19.6487 6.12675L19.4102 6.56475C19.2099 6.93289 19.0944 7.34119 19.0724 7.75973C19.0503 8.17828 19.1221 8.59645 19.2826 8.98363C19.4432 9.3708 19.6883 9.71715 20 9.99731C20.3117 10.2775 20.6822 10.4843 21.0842 10.6027L21.5612 10.7437C22.8137 11.1127 22.8137 12.8858 21.5612 13.2548L21.0827 13.3958C20.6806 13.5143 20.3101 13.7213 19.9984 14.0016C19.6867 14.282 19.4416 14.6285 19.2813 15.0159C19.1209 15.4032 19.0492 15.8215 19.0715 16.2402C19.0939 16.6588 19.2096 17.0671 19.4102 17.4352L19.6502 17.8717C20.2727 19.0177 19.0202 20.2718 17.8727 19.6478L17.4362 19.4093C17.068 19.2086 16.6596 19.093 16.2409 19.0707C15.8221 19.0485 15.4038 19.1203 15.0164 19.2808C14.629 19.4414 14.2825 19.6866 14.0022 19.9984C13.722 20.3103 13.5151 20.681 13.3967 21.0833L13.2557 21.5602C12.8867 22.8127 11.1137 22.8127 10.7447 21.5602L10.6037 21.0818C10.4851 20.6798 10.2782 20.3095 9.99792 19.998C9.71769 19.6864 9.37131 19.4415 8.98416 19.2811C8.59701 19.1208 8.17889 19.0491 7.76043 19.0712C7.34197 19.0934 6.93377 19.2089 6.56573 19.4093L6.12773 19.6493C4.98173 20.2718 3.72773 19.0192 4.35173 17.8717L4.59023 17.4352C4.79115 17.0671 4.9071 16.6586 4.92957 16.2398C4.95203 15.821 4.88044 15.4025 4.72004 15.0149C4.55965 14.6274 4.31452 14.2807 4.00264 14.0002C3.69077 13.7198 3.32006 13.5127 2.91773 13.3943L2.43923 13.2533C1.18673 12.8843 1.18673 11.1113 2.43923 10.7423L2.91773 10.6012C3.31944 10.4826 3.68954 10.2757 4.00094 9.99553C4.31234 9.7154 4.55717 9.36919 4.71751 8.98223C4.87784 8.59527 4.94962 8.17736 4.9276 7.75908C4.90558 7.3408 4.79031 6.93273 4.59023 6.56475L4.35023 6.12675C3.72773 4.98075 4.98023 3.72675 6.12773 4.35075L6.56573 4.58925C6.93377 4.78961 7.34197 4.90511 7.76043 4.92728C8.17889 4.94945 8.59701 4.87773 8.98416 4.71737C9.37131 4.55702 9.71769 4.31209 9.99792 4.00053C10.2782 3.68897 10.4851 3.31867 10.6037 2.91675L10.7447 2.43825Z" fill="#1F1F1F"/>
<path d="M11.8695 6.9995C11.2301 6.9995 10.5969 7.12544 10.0062 7.37013C9.41546 7.61482 8.8787 7.97347 8.42657 8.4256C7.97445 8.87773 7.6158 9.41448 7.37111 10.0052C7.12642 10.5959 7.00048 11.2291 7.00048 11.8685C7.00048 12.5079 7.12642 13.1411 7.37111 13.7318C7.6158 14.3225 7.97445 14.8593 8.42657 15.3114C8.8787 15.7635 9.41546 16.1222 10.0062 16.3669C10.5969 16.6116 11.2301 16.7375 11.8695 16.7375C13.1608 16.7375 14.3993 16.2245 15.3124 15.3114C16.2255 14.3983 16.7385 13.1598 16.7385 11.8685C16.7385 10.5772 16.2255 9.33871 15.3124 8.4256C14.3993 7.51248 13.1608 6.9995 11.8695 6.9995ZM8.50048 11.8685C8.50048 10.975 8.85542 10.1181 9.48723 9.48626C10.119 8.85445 10.976 8.4995 11.8695 8.4995C12.763 8.4995 13.6199 8.85445 14.2517 9.48626C14.8835 10.1181 15.2385 10.975 15.2385 11.8685C15.2385 12.762 14.8835 13.6189 14.2517 14.2507C13.6199 14.8826 12.763 15.2375 11.8695 15.2375C10.976 15.2375 10.119 14.8826 9.48723 14.2507C8.85542 13.6189 8.50048 12.762 8.50048 11.8685Z" stroke="white" stroke-width="2" mask="url(#path-1-inside-1_12_8528)"/>
<path d="M14.6942 2.01375C13.9037 -0.67125 10.0967 -0.67125 9.30623 2.01375L9.16523 2.49225C9.11002 2.67968 9.01357 2.85238 8.88295 2.99769C8.75233 3.143 8.59085 3.25724 8.41034 3.33203C8.22983 3.40682 8.03487 3.44027 7.83976 3.42993C7.64464 3.41958 7.45431 3.36571 7.28273 3.27225L6.84473 3.03225C4.38473 1.69425 1.69523 4.38525 3.03473 6.84375L3.27323 7.28175C3.36668 7.45334 3.42056 7.64367 3.4309 7.83878C3.44125 8.0339 3.4078 8.22885 3.333 8.40936C3.25821 8.58987 3.14397 8.75135 2.99866 8.88198C2.85335 9.0126 2.68065 9.10904 2.49323 9.16425L2.01473 9.30525C-0.670273 10.0958 -0.670273 13.9027 2.01473 14.6932L2.49323 14.8343C2.68065 14.8895 2.85335 14.9859 2.99866 15.1165C3.14397 15.2471 3.25821 15.4086 3.333 15.5891C3.4078 15.7696 3.44125 15.9646 3.4309 16.1597C3.42056 16.3548 3.36668 16.5452 3.27323 16.7168L3.03323 17.1548C1.69523 19.6148 4.38473 22.3058 6.84473 20.9648L7.28273 20.7262C7.45431 20.6328 7.64464 20.5789 7.83976 20.5686C8.03487 20.5582 8.22983 20.5917 8.41034 20.6665C8.59085 20.7413 8.75233 20.8555 8.88295 21.0008C9.01357 21.1461 9.11002 21.3188 9.16523 21.5063L9.30623 21.9847C10.0967 24.6697 13.9037 24.6697 14.6942 21.9847L14.8352 21.5063C14.8904 21.3188 14.9869 21.1461 15.1175 21.0008C15.2481 20.8555 15.4096 20.7413 15.5901 20.6665C15.7706 20.5917 15.9656 20.5582 16.1607 20.5686C16.3558 20.5789 16.5461 20.6328 16.7177 20.7262L17.1557 20.9662C19.6157 22.3057 22.3067 19.6133 20.9657 17.1548L20.7272 16.7168C20.6338 16.5452 20.5799 16.3548 20.5695 16.1597C20.5592 15.9646 20.5927 15.7696 20.6674 15.5891C20.7422 15.4086 20.8565 15.2471 21.0018 15.1165C21.1471 14.9859 21.3198 14.8895 21.5072 14.8343L21.9857 14.6932C24.6707 13.9027 24.6707 10.0958 21.9857 9.30525L21.5072 9.16425C21.3198 9.10904 21.1471 9.0126 21.0018 8.88198C20.8565 8.75135 20.7422 8.58987 20.6674 8.40936C20.5927 8.22885 20.5592 8.0339 20.5695 7.83878C20.5799 7.64367 20.6338 7.45334 20.7272 7.28175L20.9672 6.84375C22.3067 4.38375 19.6142 1.69425 17.1557 3.03375L16.7177 3.27225C16.5461 3.36571 16.3558 3.41958 16.1607 3.42993C15.9656 3.44027 15.7706 3.40682 15.5901 3.33203C15.4096 3.25724 15.2481 3.143 15.1175 2.99769C14.9869 2.85238 14.8904 2.67968 14.8352 2.49225L14.6942 2.01375ZM10.7447 2.43825C11.1137 1.18575 12.8867 1.18575 13.2557 2.43825L13.3967 2.91675C13.5153 3.31888 13.7223 3.68938 14.0026 4.0011C14.283 4.31282 14.6295 4.55784 15.0168 4.71822C15.4042 4.87859 15.8225 4.95025 16.2411 4.92793C16.6598 4.90562 17.0681 4.78989 17.4362 4.58925L17.8727 4.34925C19.0187 3.72675 20.2727 4.97925 19.6487 6.12675L19.4102 6.56475C19.2099 6.93289 19.0944 7.34119 19.0724 7.75973C19.0503 8.17828 19.1221 8.59645 19.2826 8.98363C19.4432 9.3708 19.6883 9.71715 20 9.99731C20.3117 10.2775 20.6822 10.4843 21.0842 10.6027L21.5612 10.7437C22.8137 11.1127 22.8137 12.8858 21.5612 13.2548L21.0827 13.3958C20.6806 13.5143 20.3101 13.7213 19.9984 14.0016C19.6867 14.282 19.4416 14.6285 19.2813 15.0159C19.1209 15.4032 19.0492 15.8215 19.0715 16.2402C19.0939 16.6588 19.2096 17.0671 19.4102 17.4352L19.6502 17.8717C20.2727 19.0177 19.0202 20.2718 17.8727 19.6478L17.4362 19.4093C17.068 19.2086 16.6596 19.093 16.2409 19.0707C15.8221 19.0485 15.4038 19.1203 15.0164 19.2808C14.629 19.4414 14.2825 19.6866 14.0022 19.9984C13.722 20.3103 13.5151 20.681 13.3967 21.0833L13.2557 21.5602C12.8867 22.8127 11.1137 22.8127 10.7447 21.5602L10.6037 21.0818C10.4851 20.6798 10.2782 20.3095 9.99792 19.998C9.71769 19.6864 9.37131 19.4415 8.98416 19.2811C8.59701 19.1208 8.17889 19.0491 7.76043 19.0712C7.34197 19.0934 6.93377 19.2089 6.56573 19.4093L6.12773 19.6493C4.98173 20.2718 3.72773 19.0192 4.35173 17.8717L4.59023 17.4352C4.79115 17.0671 4.9071 16.6586 4.92957 16.2398C4.95203 15.821 4.88044 15.4025 4.72004 15.0149C4.55965 14.6274 4.31452 14.2807 4.00264 14.0002C3.69077 13.7198 3.32006 13.5127 2.91773 13.3943L2.43923 13.2533C1.18673 12.8843 1.18673 11.1113 2.43923 10.7423L2.91773 10.6012C3.31944 10.4826 3.68954 10.2757 4.00094 9.99553C4.31234 9.7154 4.55717 9.36919 4.71751 8.98223C4.87784 8.59527 4.94962 8.17736 4.9276 7.75908C4.90558 7.3408 4.79031 6.93273 4.59023 6.56475L4.35023 6.12675C3.72773 4.98075 4.98023 3.72675 6.12773 4.35075L6.56573 4.58925C6.93377 4.78961 7.34197 4.90511 7.76043 4.92728C8.17889 4.94945 8.59701 4.87773 8.98416 4.71737C9.37131 4.55702 9.71769 4.31209 9.99792 4.00053C10.2782 3.68897 10.4851 3.31867 10.6037 2.91675L10.7447 2.43825Z" stroke="white" stroke-width="2" mask="url(#path-1-inside-1_12_8528)"/>
</g>
<defs>
<clipPath id="clip0_12_8528">
<rect width="24" height="24" fill="white"/>
</clipPath>
</defs>
</svg>
